<?xml version="1.0" encoding="UTF-8"?><svg id="Layer_1" xmlns="http://www.w3.org/2000/svg" viewBox="0 0 243.1886 80.0622"><defs><style>.cls-1{fill:#fff;}</style></defs><path class="cls-1" d="m42.0981,34.9914c-1.1748,2.4194-3.5371,7.6504-7.0854,15.6919-2.9497,6.7285-5.4609,12.0059-7.5347,15.8301-3.5947,6.6367-5.5186,10.1504-5.772,10.542-1.3599,2.0049-2.9268,3.0068-4.7007,3.0068-1.2676,0-2.3848-.4141-3.3525-1.2441-1.0601-.9219-1.5898-2.0615-1.5898-3.4219,0-1.1289,2.4072-5.876,7.2236-14.2402-1.7749-2.5576-4.3203-6.4395-7.6387-11.6479-2.4883-3.8242-6.1406-9.5967-10.9565-17.3159-.4604-.7832-.6914-1.6016-.6914-2.4541,0-1.3359.5186-2.4653,1.5557-3.3872.9678-.8521,2.0962-1.2788,3.3872-1.2788,1.5205,0,2.9033.7725,4.1475,2.3159l2.5923,4.1475c.1611.2764,2.1431,3.6411,5.9448,10.0923,2.3965,4.125,4.5161,7.3853,6.3599,9.7822,1.7505-3.5264,4.2739-8.8604,7.5693-16.0034.6909-1.5898,1.728-3.9976,3.1104-7.2236.8755-2.0742,2.373-3.1108,4.4937-3.1108,1.2666,0,2.3848.4146,3.3525,1.2441,1.0596.8989,1.5898,2.0278,1.5898,3.3872,0,.7837-.6685,2.5464-2.0049,5.2881Z"/><path class="cls-1" d="m72.5142,79.7517c-6.8213,0-12.6279-1.959-17.4199-5.876-5.1157-4.1934-7.6733-9.6201-7.6733-16.2793,0-7.8345,2.4541-14.9775,7.3623-21.4297,5.5068-7.2583,12.4424-10.8872,20.8071-10.8872,8.041,0,14.0674,1.8438,18.0762,5.5298,4.0098,3.687,6.0146,9.2285,6.0146,16.625,0,7.835-2.2588,14.9316-6.7744,21.291-5.208,7.3506-12.0059,11.0264-20.3926,11.0264Zm3.0762-45.1055c-5.1387,0-9.5396,2.4883-13.2036,7.4653-3.4336,4.6548-5.1499,9.8159-5.1499,15.4849,0,3.8252,1.4863,6.9355,4.459,9.332,2.8569,2.3047,6.4634,3.4561,10.8184,3.4561,5.0684,0,9.2969-2.4883,12.6846-7.4658,3.1104-4.5391,4.666-9.7002,4.666-15.4844,0-4.8389-1.083-8.2026-3.249-10.0923-2.0732-1.7974-5.749-2.6958-11.0254-2.6958Z"/><path class="cls-1" d="m130.6841,42.9064c.2988-7.8569.6562-13.2837,1.0713-16.2793.3916-2.7183,1.8887-4.0781,4.4932-4.0781,1.3594,0,2.4541.4419,3.2832,1.3262.8301.8848,1.2441,1.9663,1.2441,3.2461,0,3.3745-.2588,8.3999-.7773,15.0786-.5186,6.6782-.7773,11.7041-.7773,15.0781,0,8.2383.2646,13.7529.7949,16.5449.0693.3721.1035.71.1035,1.0127,0,1.2793-.4609,2.332-1.3828,3.1582s-1.9932,1.2393-3.2139,1.2393c-1.7061,0-2.9727-.7607-3.8027-2.2812-1.5664.9443-3.1914,1.5605-4.873,1.8486-1.6826.2881-3.4219.4326-5.2188.4326-5.1621,0-9.4482-1.6475-12.8574-4.9424-3.4795-3.3643-5.2197-7.6504-5.2197-12.8584,0-6.1973,1.751-11.2036,5.2539-15.0176,3.502-3.8135,8.0762-5.7202,13.7217-5.7202,1.7285,0,3.2715.1846,4.6318.5532,1.3594.3687,2.5342.9219,3.5254,1.6587Zm-.6914,10.8882c-.7607-1.4521-1.752-2.5352-2.9727-3.2495-1.2217-.7139-2.6729-1.0713-4.3545-1.0713-3.4111,0-5.9688.9849-7.6738,2.9556-1.7051,1.9697-2.5576,4.9248-2.5576,8.8652,0,2.4883.9219,4.6201,2.7656,6.3945,1.8428,1.7744,3.9854,2.6611,6.4287,2.6611,1.7734,0,3.1221-.208,4.0439-.6221.6221-.2764,1.6816-1.0137,3.1797-2.2119.3916-.3232.7715-.6797,1.1406-1.0723-.0469-1.1055-.0469-5.3223,0-12.6494Z"/><path class="cls-1" d="m157.7817,61.4323c0,1.3135.04,3.4219.1211,6.3252.0801,2.9033.1211,5.0117.1211,6.3252,0,1.3369-.4492,2.4365-1.3486,3.3008-.8984.8643-2.0391,1.2969-3.4209,1.2969-1.3828,0-2.5234-.4326-3.4219-1.2969-.8994-.8643-1.3486-1.9639-1.3486-3.3008,0-1.3135-.04-3.4219-.1211-6.3252-.0801-2.9033-.1201-5.0117-.1201-6.3252,0-2.0498.1143-4.6191.3457-7.707.2295-3.0879.3447-5.6567.3447-7.708,0-1.3359.4502-2.4365,1.3486-3.3008s2.0391-1.2959,3.4219-1.2959c1.3818,0,2.5225.4316,3.4219,1.2959.8984.8643,1.3477,1.9648,1.3477,3.3008,0,2.0513-.1152,4.6201-.3457,7.708s-.3457,5.6572-.3457,7.707Zm-2.9375-25.3345c-1.4756,0-2.7539-.4956-3.8369-1.4863s-1.624-2.2002-1.624-3.6294c0-1.4282.541-2.6382,1.624-3.6289s2.3613-1.4863,3.8369-1.4863c1.4736,0,2.7471.4956,3.8193,1.4863,1.0713.9907,1.6064,2.2007,1.6064,3.6289,0,1.4292-.5352,2.6387-1.6064,3.6294-1.0723.9907-2.3457,1.4863-3.8193,1.4863Z"/><path class="cls-1" d="m181.0435,79.6823c-4.2637,0-7.9268-1.4639-10.9912-4.3896-3.3643-3.2021-5.127-7.4766-5.2881-12.8232-.1611-5.0918,1.2324-9.6309,4.1816-13.6182,3.5029-4.7002,8.376-7.0508,14.6211-7.0508,4.6074,0,8.2715,1.8438,10.9912,5.5303,2.4414,3.3184,3.6631,7.4316,3.6631,12.3389,0,5.3467-1.4287,9.9092-4.2861,13.6875-3.2021,4.2168-7.5,6.3252-12.8916,6.3252Zm2.0742-28.7568c-2.835-.0225-5.0703,1.2676-6.7061,3.8711-1.3818,2.1895-2.0732,4.7471-2.0732,7.6729,0,2.7656.7832,4.8857,2.3496,6.3604,1.2451,1.1748,2.6963,1.7627,4.3555,1.7627,2.0049,0,3.7441-.6797,5.2188-2.04,1.6816-1.5898,2.5811-3.7441,2.6963-6.4629.2988-7.4189-1.6475-11.1406-5.8408-11.1641Z"/><path class="cls-1" d="m206.9888,62.372c-.1602,0-.3223-.0098-.4863-.0293-2.1934-.2661-3.7549-2.2593-3.4893-4.4526,2.2695-18.7266-13.2393-22.0229-15.0156-22.3369-2.168-.3838-3.6279-2.4482-3.2559-4.6177.373-2.1694,2.4258-3.6294,4.5898-3.2705.249.0415,24.8623,4.4595,21.623,31.188-.2461,2.0293-1.9717,3.519-3.9658,3.519Z"/><path class="cls-1" d="m222.3257,62.8309c-.1602,0-.3232-.0098-.4863-.0298-2.1934-.2656-3.7549-2.2588-3.4893-4.4521,3.8359-31.6436-23.8721-36.8115-25.0537-37.0161-2.1719-.376-3.6367-2.439-3.2676-4.6123.3691-2.1724,2.4102-3.6362,4.5947-3.2769.3652.061,36.4355,6.5366,31.668,45.8682-.2461,2.0293-1.9717,3.519-3.9658,3.519Z"/><path class="cls-1" d="m238.6763,61.2211c-.1602,0-.3223-.0098-.4863-.0298-2.1934-.2656-3.7549-2.2588-3.4893-4.4521,5.0605-41.7529-31.5498-48.5264-33.1104-48.7944-2.1738-.373-3.6396-2.4355-3.2725-4.6104.3672-2.1738,2.4111-3.6421,4.5967-3.2793.458.0767,45.7207,8.2036,39.7275,57.647-.2461,2.0293-1.9717,3.519-3.9658,3.519Z"/></svg>